<?xml version="1.0" encoding="utf-8"?>
<!-- Generator: Adobe Illustrator 24.2.1, SVG Export Plug-In . SVG Version: 6.00 Build 0)  -->
<!DOCTYPE svg PUBLIC "-//W3C//DTD SVG 1.1//EN" "http://www.w3.org/Graphics/SVG/1.1/DTD/svg11.dtd" [
	<!ENTITY ns_extend "http://ns.adobe.com/Extensibility/1.0/">
	<!ENTITY ns_ai "http://ns.adobe.com/AdobeIllustrator/10.0/">
	<!ENTITY ns_graphs "http://ns.adobe.com/Graphs/1.0/">
	<!ENTITY ns_vars "http://ns.adobe.com/Variables/1.0/">
	<!ENTITY ns_imrep "http://ns.adobe.com/ImageReplacement/1.0/">
	<!ENTITY ns_sfw "http://ns.adobe.com/SaveForWeb/1.0/">
	<!ENTITY ns_custom "http://ns.adobe.com/GenericCustomNamespace/1.0/">
	<!ENTITY ns_adobe_xpath "http://ns.adobe.com/XPath/1.0/">
]>
<svg version="1.1" id="图层_1" xmlns:x="&ns_extend;" xmlns:i="&ns_ai;" xmlns:graph="&ns_graphs;"
	 xmlns="http://www.w3.org/2000/svg" xmlns:xlink="http://www.w3.org/1999/xlink" x="0px" y="0px" viewBox="0 0 2350 1000"
	 enable-background="new 0 0 2350 1000" xml:space="preserve">
<metadata>
	<sfw  xmlns="&ns_sfw;">
		<slices></slices>
		<sliceSourceBounds  bottomLeftOrigin="true" height="1001" width="2351" x="-95.5" y="-1580.5"></sliceSourceBounds>
	</sfw>
</metadata>
<linearGradient id="SVGID_1_" gradientUnits="userSpaceOnUse" x1="664.7436523" y1="-383.789917" x2="1685.2563477" y2="1383.789917">
	<stop  offset="0" style="stop-color:#FFF21F"/>
	<stop  offset="0.0594872" style="stop-color:#FFE400"/>
	<stop  offset="0.1302734" style="stop-color:#FED700"/>
	<stop  offset="0.2031997" style="stop-color:#FDCF00"/>
	<stop  offset="0.280899" style="stop-color:#FCCD00"/>
	<stop  offset="0.668539" style="stop-color:#EF852E"/>
	<stop  offset="0.88764" style="stop-color:#EA652D"/>
	<stop  offset="1" style="stop-color:#E5352B"/>
</linearGradient>
<rect fill="url(#SVGID_1_)" stroke="#000000" stroke-miterlimit="10" width="2350" height="1000"/>
<g>
	<path fill="#FFFFFF" d="M202.2070313,689.1015625V320.4619141h92.1601563
		c86.0166016,2.3916016,130.2158203,31.5761719,132.6083984,87.5517578
		c-0.34375,43.0078125-22.1923828,70.4882813-65.5361328,82.4316406v1.0244141
		c51.2001953,12.2880859,77.3115234,43.3525391,78.3359375,93.1835938
		c-0.6875,68.6083984-44.7197266,103.4248047-132.0957031,104.4482422
		C294.703125,689.7822266,259.5517578,689.7822266,202.2070313,689.1015625z M270.3037109,481.2294922h17.4082031
		c45.7353516-0.3359375,68.7753906-23.7197266,69.1191406-70.1435547c0-40.6162109-20.8232422-60.9277344-62.4638672-60.9277344
		h-24.0634766V481.2294922z M270.3037109,510.4140625v149.5039063h37.3759766
		c40.6162109-1.0244141,61.0957031-26.7919922,61.4394531-77.3125
		c0.6806641-48.8076172-26.2880859-72.8720703-80.8955078-72.1914063H270.3037109z"/>
	<path fill="#FFFFFF" d="M502.2363281,689.1015625V320.4619141h206.8476563v29.6962891H570.3320313v130.5595703h134.1435547
		v29.6962891H570.3320313v149.5039063h141.3115234v29.1835938H502.2363281z"/>
	<path fill="#FFFFFF" d="M1020.8857422,626.1259766l4.6083984,38.9121094
		c-24.2402344,20.1435547-56.4960938,30.2080078-96.7685547,30.2080078
		c-114.6875-1.7119141-172.8876953-65.3603516-174.5917969-190.9765625
		c2.0478516-124.5839844,60.9277344-187.9033203,176.6396484-189.9521484
		c39.2480469-0.6796875,71.1679688,7.1679688,95.7441406,23.5527344l-8.7041016,49.6640625
		c-22.8720703-30.3759766-52.3994141-44.8808594-88.5761719-43.5205078
		c-68.6074219,1.7119141-103.4238281,55.1279297-104.4472656,160.2558594
		c1.7041016,104.4482422,35.8398438,158.0400391,102.3994141,160.7685547
		C962.0058594,666.0615234,993.2373047,653.09375,1020.8857422,626.1259766z"/>
	<path fill="#FFFFFF" d="M1224.1455078,347.0859375v-30.2080078h120.3193359V262.09375h62.4638672v54.7841797h111.1044922
		v30.2080078h-111.1044922v64h36.8642578c49.8320313-37.5439453,97.7919922-80.3837891,143.8720703-128.5117188
		l50.1757813,36.8632813c-40.6240234,35.8398438-78.1679688,66.3925781-112.6396484,91.6484375h131.0712891v30.2080078h-174.0791016
		c-26.96875,18.4316406-54.7841797,35.671875-83.4560547,51.7119141h225.2792969v30.7197266H1385.9375l-10.7529297,56.3203125
		h204.8007813v90.1123047c0.3359375,39.5917969-21.5039063,59.2158203-65.5361328,58.8798828h-148.9921875l-7.6796875-30.2080078
		h122.8798828c21.1601563-0.6884766,32.0800781-10.5761719,32.7675781-29.6962891V610.765625h-204.2880859l12.8007813-76.7998047
		c-40.2802734,19.7998047-81.9208984,38.9121094-124.9287109,57.34375l-12.7998047-28.671875
		c86.015625-40.2714844,158.5439453-80.7197266,217.5996094-121.34375h-214.015625v-30.2080078h156.671875v-64H1224.1455078z"/>
	<path fill="#FFFFFF" d="M1739.7294922,715.2138672V457.1660156h-39.9355469v-30.7207031h99.328125v194.0488281
		c14.671875-9.2167969,29.3515625-21.1601563,44.03125-35.8408203l5.1201172,30.7207031
		C1818.578125,649.1660156,1782.3935547,682.4462891,1739.7294922,715.2138672z M1770.4501953,383.9501953
		c-20.1445313-48.1289063-37.2080078-82.2568359-51.2001953-102.4003906l27.6474609-16.3837891
		c0.3359375,0.34375,1.3603516,1.2001953,3.0722656,2.5595703c29.3515625,23.8964844,54.7841797,51.3759766,76.2880859,82.4326172
		L1770.4501953,383.9501953z M1843.6660156,497.6142578v-30.7207031h148.4794922v30.7207031h-43.0078125v137.2158203
		c19.1123047-2.0478516,38.7363281-4.9443359,58.8798828-8.7041016v28.671875
		c-49.4960938,19.7998047-104.6240234,35.6640625-165.3759766,47.6162109l-10.2402344-56.3203125l58.8808594-4.6083984V497.6142578
		H1843.6660156z M2003.921875,264.1416016h60.4160156l2.5595703,97.7919922h96.7685547v30.7197266h-95.7441406L2069.9697266,460.75
		c3.0722656,104.7919922,12.2880859,176.6396484,27.6484375,215.5517578
		c3.4072266,9.2158203,8.703125,14.1601563,15.8720703,14.8476563c4.7753906,0.3359375,8.359375-4.0957031,10.7519531-13.3115234
		c5.4560547-23.8876953,10.7519531-53.9277344,15.8720703-90.1123047l29.6953125,14.8486328
		c-4.7841797,36.8632813-10.4160156,68.4394531-16.8955078,94.7197266
		c-5.8085938,22.8642578-21.1679688,34.4716797-46.0800781,34.8154297c-29.0166016,0-49.1523438-14-60.4160156-41.9833984
		c-19.1201172-36.8642578-31.2324219-112.2958984-36.3525391-226.3037109l-2.0478516-71.1689453h-172.0322266v-30.7197266
		h171.0087891L2003.921875,264.1416016z M2120.6582031,351.1816406
		c-13.65625-26.2802734-27.4804688-46.9277344-41.4726563-61.9521484l22.5283203-17.9199219
		c23.5517578,16.7285156,43.0078125,33.6240234,58.3681641,50.6884766L2120.6582031,351.1816406z"/>
</g>
<g>
</g>
<g>
</g>
<g>
</g>
<g>
</g>
<g>
</g>
<g>
</g>
</svg>
