<?xml version="1.0" encoding="utf-8"?>
<!-- Generator: Adobe Illustrator 24.2.1, SVG Export Plug-In . SVG Version: 6.00 Build 0)  -->
<!DOCTYPE svg PUBLIC "-//W3C//DTD SVG 1.1//EN" "http://www.w3.org/Graphics/SVG/1.1/DTD/svg11.dtd" [
	<!ENTITY ns_extend "http://ns.adobe.com/Extensibility/1.0/">
	<!ENTITY ns_ai "http://ns.adobe.com/AdobeIllustrator/10.0/">
	<!ENTITY ns_graphs "http://ns.adobe.com/Graphs/1.0/">
	<!ENTITY ns_vars "http://ns.adobe.com/Variables/1.0/">
	<!ENTITY ns_imrep "http://ns.adobe.com/ImageReplacement/1.0/">
	<!ENTITY ns_sfw "http://ns.adobe.com/SaveForWeb/1.0/">
	<!ENTITY ns_custom "http://ns.adobe.com/GenericCustomNamespace/1.0/">
	<!ENTITY ns_adobe_xpath "http://ns.adobe.com/XPath/1.0/">
]>
<svg version="1.1" id="图层_1" xmlns:x="&ns_extend;" xmlns:i="&ns_ai;" xmlns:graph="&ns_graphs;"
	 xmlns="http://www.w3.org/2000/svg" xmlns:xlink="http://www.w3.org/1999/xlink" x="0px" y="0px" viewBox="0 0 2350 1000"
	 enable-background="new 0 0 2350 1000" xml:space="preserve">
<metadata>
	<sfw  xmlns="&ns_sfw;">
		<slices></slices>
		<sliceSourceBounds  bottomLeftOrigin="true" height="1001" width="2351" x="-95.5" y="-1580.5"></sliceSourceBounds>
	</sfw>
</metadata>
<linearGradient id="SVGID_1_" gradientUnits="userSpaceOnUse" x1="664.7436523" y1="-383.789917" x2="1685.2563477" y2="1383.789917">
	<stop  offset="0" style="stop-color:#FFF21F"/>
	<stop  offset="0.0594872" style="stop-color:#FFE400"/>
	<stop  offset="0.1302734" style="stop-color:#FED700"/>
	<stop  offset="0.2031997" style="stop-color:#FDCF00"/>
	<stop  offset="0.280899" style="stop-color:#FCCD00"/>
	<stop  offset="0.668539" style="stop-color:#EF852E"/>
	<stop  offset="0.88764" style="stop-color:#EA652D"/>
	<stop  offset="1" style="stop-color:#E5352B"/>
</linearGradient>
<rect fill="url(#SVGID_1_)" stroke="#000000" stroke-miterlimit="10" width="2350" height="1000"/>
<g>
	<path fill="#FFFFFF" d="M370.1367188,262.09375h68.6074219v133.6318359h194.0478516v30.2080078H438.2324219
		c19.7919922,120.8320313,88.9121094,201.7285156,207.359375,242.6884766l-43.5195313,61.9521484
		c-90.7998047-39.6005859-151.7275391-114.1767578-182.7841797-223.7441406
		c-37.2080078,104.1113281-116.2236328,180.2236328-237.0556641,228.3515625L165.8486328,710.09375
		c126.2880859-66.8955078,193.8720703-161.6162109,202.7519531-284.1601563H179.671875v-30.2080078h190.4648438V262.09375z"/>
	<path fill="#FFFFFF" d="M683.9921875,596.9414063v-30.2080078h214.015625v-19.4560547
		c29.6962891-17.0634766,61.2646484-39.2470703,94.7207031-66.5595703H768.984375v-30.7197266h297.4716797v34.8154297
		c-39.9355469,30.7207031-74.0722656,53.9365234-102.3994141,69.6318359v12.2880859h188.9277344v30.2080078H964.0566406v80.8964844
		c-0.3447266,34.1279297-18.4326172,51.3681641-54.2724609,51.7119141h-99.328125l-7.1679688-30.2080078h72.1923828
		c15.015625,0,22.5273438-7.8564453,22.5273438-23.5517578v-78.8486328H683.9921875z M756.6962891,467.9179688h-60.9277344
		V360.9101563h293.3759766c17.7441406-29.6962891,34.3037109-62.8007813,49.6640625-99.328125l69.1201172,17.4082031
		c-21.1689453,28.671875-46.5927734,55.9833984-76.2880859,81.9199219h109.5673828v107.0078125h-60.4160156v-76.7998047H756.6962891
		V467.9179688z M766.4238281,352.2060547c-10.5839844-37.8886719-20.3115234-64.5126953-29.1835938-79.8720703l31.2324219-7.6806641
		c0.3359375,0.3447266,0.8476563,0.6884766,1.5351563,1.0244141c21.5048828,16.7285156,42.3203125,39.4238281,62.4648438,68.0957031
		L766.4238281,352.2060547z M894.9365234,345.0380859c-6.1445313-31.4003906-14.3359375-57.5126953-24.5761719-78.3359375
		l31.2314453-6.1445313c0.3369141,0.34375,1.3603516,1.2001953,3.0722656,2.5605469
		c21.1601563,16.7275391,40.4482422,39.4238281,57.8564453,68.0957031L894.9365234,345.0380859z"/>
	<path fill="#FFFFFF" d="M1195.9921875,432.5898438v-30.2080078h468.9931641v30.2080078H1195.9921875z M1394.1367188,520.6533203
		c-40.6240234,74.7529297-95.2324219,144.7285156-163.8408203,209.9208984
		c-1.3671875,1.359375-2.2236328,2.2158203-2.5595703,2.5595703l-25.5996094-20.9921875
		c53.5839844-71.6796875,97.2792969-145.9199219,131.0712891-222.7197266L1394.1367188,520.6533203z M1419.7363281,383.9501953
		c-12.2880859-48.4648438-24.0644531-84.8164063-35.328125-109.0566406l28.1601563-12.2880859
		c0.3359375,0.3447266,1.1914063,1.2001953,2.5595703,2.5605469c29.0087891,27.3115234,52.9042969,57.6875,71.6806641,91.1357422
		L1419.7363281,383.9501953z M1594.328125,729.0380859c-33.4560547-73.7285156-73.9042969-147.6240234-121.34375-221.6962891
		l28.1601563-16.8964844c1.0234375,1.0244141,3.5839844,3.9287109,7.6796875,8.7041016
		c61.0957031,68.2724609,110.5917969,132.6083984,148.4794922,193.0244141L1594.328125,729.0380859z"/>
	<path fill="#FFFFFF" d="M1831.8974609,352.7177734l52.2236328,24.0644531
		c-36.1845703,61.4394531-74.0722656,114.3515625-113.6640625,158.7197266c0.3359375,0,0.8476563,0,1.5361328,0
		c31.7441406-2.0478516,60.7519531-4.2646484,87.0400391-6.65625v28.671875
		c-45.4003906,13.65625-90.6240234,24.4082031-135.6806641,32.2558594l-14.8476563-51.1992188
		c0.3359375-0.3369141,1.0244141-1.0244141,2.0478516-2.0488281c23.2080078-26.6240234,45.5683594-55.9755859,67.0722656-88.0634766
		c-27.3125,7.1679688-48.4716797,11.9521484-63.4882813,14.3359375l-15.8720703-50.6884766
		c33.1044922-44.7119141,60.2402344-94.5439453,81.4082031-149.5039063l58.8798828,17.4082031
		c-28.3359375,50.1757813-55.2958984,93.015625-80.8955078,128.5117188
		c11.9433594-0.3359375,27.3037109-1.1914063,46.0800781-2.5595703
		C1813.2890625,389.5820313,1822.6806641,371.8378906,1831.8974609,352.7177734z M1852.8886719,647.1181641
		c-41.3037109,16.3837891-89.5996094,31.7431641-144.8955078,46.0800781l-7.1679688-58.8808594
		c2.0478516-0.3359375,11.0878906-1.1914063,27.1357422-2.5595703
		c50.1757813-4.4316406,91.8164063-8.7041016,124.9277344-12.7998047V647.1181641z M2076.6328125,426.4453125h86.5283203v34.8164063
		c-13.65625,55.6396484-38.9121094,106.4960938-75.7763672,152.5761719
		c25.9365234,21.8476563,57.8564453,41.984375,95.7441406,60.4160156l-34.3037109,56.3203125
		c-37.8886719-21.5048828-70.65625-46.9287109-98.3046875-76.2880859
		c-36.5273438,33.7919922-78.1679688,60.7519531-124.9277344,80.8955078l-15.359375-27.1357422
		c45.3916016-27.3037109,82.0878906-56.8320313,110.0800781-88.5761719
		c-25.6005859-33.7919922-46.5927734-70.65625-62.9765625-110.5917969
		c-13.3115234,84.9921875-50.8642578,158.7197266-112.6396484,221.1835938L1826.7773438,703.4375
		c55.6318359-79.5273438,82.4316406-179.7119141,80.3837891-300.5439453v-88.5761719h-34.8164063V284.109375h257.0244141v34.8164063
		c-10.2402344,27.3115234-25.7763672,59.3916016-46.5917969,96.2558594
		C2079.3613281,421.3261719,2077.3134766,425.0859375,2076.6328125,426.4453125z M1965.0166016,405.9658203v13.8242188
		c21.1601563,65.5361328,50,118.6162109,86.5283203,159.2314453
		c23.5517578-34.8154297,40.9599609-75.7753906,52.2236328-122.8798828H2026.96875v-29.6962891
		c17.4082031-37.1992188,31.7441406-74.5751953,43.0078125-112.1279297h-104.9599609V405.9658203z"/>
</g>
<g>
</g>
<g>
</g>
<g>
</g>
<g>
</g>
<g>
</g>
<g>
</g>
</svg>
