<?xml version="1.0" encoding="utf-8"?>
<!-- Generator: Adobe Illustrator 24.2.1, SVG Export Plug-In . SVG Version: 6.00 Build 0)  -->
<!DOCTYPE svg PUBLIC "-//W3C//DTD SVG 1.1//EN" "http://www.w3.org/Graphics/SVG/1.1/DTD/svg11.dtd" [
	<!ENTITY ns_extend "http://ns.adobe.com/Extensibility/1.0/">
	<!ENTITY ns_ai "http://ns.adobe.com/AdobeIllustrator/10.0/">
	<!ENTITY ns_graphs "http://ns.adobe.com/Graphs/1.0/">
	<!ENTITY ns_vars "http://ns.adobe.com/Variables/1.0/">
	<!ENTITY ns_imrep "http://ns.adobe.com/ImageReplacement/1.0/">
	<!ENTITY ns_sfw "http://ns.adobe.com/SaveForWeb/1.0/">
	<!ENTITY ns_custom "http://ns.adobe.com/GenericCustomNamespace/1.0/">
	<!ENTITY ns_adobe_xpath "http://ns.adobe.com/XPath/1.0/">
]>
<svg version="1.1" id="图层_1" xmlns:x="&ns_extend;" xmlns:i="&ns_ai;" xmlns:graph="&ns_graphs;"
	 xmlns="http://www.w3.org/2000/svg" xmlns:xlink="http://www.w3.org/1999/xlink" x="0px" y="0px" viewBox="0 0 2350 1000"
	 enable-background="new 0 0 2350 1000" xml:space="preserve">
<metadata>
	<sfw  xmlns="&ns_sfw;">
		<slices></slices>
		<sliceSourceBounds  bottomLeftOrigin="true" height="1001" width="2351" x="-95.5" y="-1580.5"></sliceSourceBounds>
	</sfw>
</metadata>
<linearGradient id="SVGID_1_" gradientUnits="userSpaceOnUse" x1="664.7436523" y1="-383.789917" x2="1685.2563477" y2="1383.789917">
	<stop  offset="0" style="stop-color:#FFF21F"/>
	<stop  offset="0.0594872" style="stop-color:#FFE400"/>
	<stop  offset="0.1302734" style="stop-color:#FED700"/>
	<stop  offset="0.2031997" style="stop-color:#FDCF00"/>
	<stop  offset="0.280899" style="stop-color:#FCCD00"/>
	<stop  offset="0.668539" style="stop-color:#EF852E"/>
	<stop  offset="0.88764" style="stop-color:#EA652D"/>
	<stop  offset="1" style="stop-color:#E5352B"/>
</linearGradient>
<rect fill="url(#SVGID_1_)" stroke="#000000" stroke-miterlimit="10" width="2350" height="1000"/>
<g>
	<path fill="#FFFFFF" d="M291.7998047,735.1816406h-60.4160156V538.5742188
		C215,553.5976563,197.2480469,567.9335938,178.1367188,581.5820313l-10.2402344-34.8164063
		c52.2236328-49.8320313,88.0634766-102.2236328,107.5195313-157.1835938h-99.328125v-30.2080078h162.8164063v36.3515625
		c-12.9755859,26.6240234-28.671875,52.2246094-47.1044922,76.7998047v20.4804688l14.3369141,9.2158203
		c13.3115234-16.7197266,26.7919922-37.2001953,40.4472656-61.4394531l40.4482422,30.7197266
		c-19.4560547,18.7753906-37.0400391,35.328125-52.7363281,49.6640625
		c19.1123047,12.9755859,35.328125,24.9199219,48.640625,35.8398438l-34.8164063,42.4960938
		c-17.7519531-21.5039063-36.5283203-42.3203125-56.3203125-62.4638672V735.1816406z M256.984375,354.2539063
		c-7.5117188-25.6005859-17.5839844-51.2001953-30.2080078-76.7998047l30.7197266-12.2880859
		c20.8164063,18.0957031,40.6162109,39.2558594,59.3925781,63.4873047L256.984375,354.2539063z M560.0878906,724.9414063
		h-93.6953125l-7.1679688-31.7431641h68.6074219c20.8164063,0,31.2324219-10.4082031,31.2324219-31.2324219V326.09375h-77.8242188
		v59.9042969c0.6796875,95.9199219-9.2158203,168.2792969-29.6962891,217.0878906
		c-20.8232422,52.5673828-58.03125,96.5917969-111.6152344,132.0957031l-22.5283203-22.015625
		c40.6162109-39.5917969,68.0957031-83.1123047,82.4316406-130.5605469
		c13.9921875-41.2958984,20.4804688-107.0078125,19.4560547-197.1201172V326.09375h-58.8798828v-30.7197266h262.1445313v368.1279297
		C621.5283203,703.09375,600.7041016,723.5742188,560.0878906,724.9414063z"/>
	<path fill="#FFFFFF" d="M1134.0400391,578.5097656H950.2324219v158.2080078h-67.5839844V578.5097656H701.4003906V352.7177734
		h181.2480469V262.09375h67.5839844v90.6240234h183.8076172V578.5097656z M766.9365234,383.9501953v164.3515625h115.7119141
		V383.9501953H766.9365234z M1068.5039063,383.9501953H950.2324219v164.3515625h118.2714844V383.9501953z"/>
	<path fill="#FFFFFF" d="M1397.2080078,384.9736328h63.4882813v47.6162109h151.0400391v123.3916016h49.6650391v29.6962891
		h-200.7050781c34.8164063,52.2236328,103.2480469,80.8964844,205.3125,86.015625l-22.5283203,60.9287109
		c-104.7919922-15.0244141-173.2324219-55.8085938-205.3125-122.3681641
		c-30.3837891,61.1035156-107.3515625,102.7363281-230.9121094,124.9277344l-12.2880859-28.671875
		c110.9287109-27.6484375,174.2480469-67.9199219,189.9521484-120.8320313h-184.8320313v-29.6962891h48.1279297V432.5898438
		h148.9921875V384.9736328z M1492.9521484,397.7734375v-50.6875h-127.4882813v50.6875h-62.9755859v-50.6875h-102.4003906
		v-30.2080078h102.4003906v-52.7363281h62.9755859v52.7363281h127.4882813v-52.7363281h62.9765625v52.7363281h104.9589844
		v30.2080078h-104.9589844v50.6875H1492.9521484z M1393.1123047,555.9814453
		c2.7275391-15.359375,4.0957031-32.5917969,4.0957031-51.7119141v-40.9599609h-88.0634766v92.671875H1393.1123047z
		 M1460.6962891,505.8056641c0,18.0957031-1.5361328,34.8164063-4.6083984,50.1757813h94.2080078v-92.671875h-89.5996094
		V505.8056641z"/>
	<path fill="#FFFFFF" d="M1744.8574219,721.8701172V457.1660156h-43.5205078v-30.2080078h104.4482422v197.6318359
		c11.2636719-6.1445313,27.8154297-18.2558594,49.6640625-36.3515625l5.6318359,30.7197266
		C1826.2646484,657.5341797,1787.5205078,691.8300781,1744.8574219,721.8701172z M1783.7685547,384.9736328
		c-16.0478516-40.9599609-33.2792969-74.9199219-51.7119141-101.8876953l28.671875-15.8720703
		c27.984375,25.2636719,54.4404297,52.9121094,79.3603516,82.9443359L1783.7685547,384.9736328z M1850.3291016,310.2216797
		v-30.7197266h313.8554688v30.7197266h-162.3037109l-13.3115234,62.9765625h144.8955078v108.03125h45.0556641V511.4375h-340.4794922
		v-30.2080078h65.5361328l16.3837891-77.3115234h-59.3916016v-30.7197266h66.0478516l13.3115234-62.9765625H1850.3291016z
		 M2147.8007813,716.75h-275.9677734V562.6376953h275.9677734V716.75z M2085.3369141,592.8457031h-151.5517578v93.6962891
		h151.5517578V592.8457031z M2072.5371094,403.9179688h-90.6240234l-16.3837891,77.3115234h107.0078125V403.9179688z"/>
</g>
<g>
</g>
<g>
</g>
<g>
</g>
<g>
</g>
<g>
</g>
<g>
</g>
</svg>
