<?xml version="1.0" encoding="utf-8"?>
<!-- Generator: Adobe Illustrator 24.2.1, SVG Export Plug-In . SVG Version: 6.00 Build 0)  -->
<!DOCTYPE svg PUBLIC "-//W3C//DTD SVG 1.1//EN" "http://www.w3.org/Graphics/SVG/1.1/DTD/svg11.dtd" [
	<!ENTITY ns_extend "http://ns.adobe.com/Extensibility/1.0/">
	<!ENTITY ns_ai "http://ns.adobe.com/AdobeIllustrator/10.0/">
	<!ENTITY ns_graphs "http://ns.adobe.com/Graphs/1.0/">
	<!ENTITY ns_vars "http://ns.adobe.com/Variables/1.0/">
	<!ENTITY ns_imrep "http://ns.adobe.com/ImageReplacement/1.0/">
	<!ENTITY ns_sfw "http://ns.adobe.com/SaveForWeb/1.0/">
	<!ENTITY ns_custom "http://ns.adobe.com/GenericCustomNamespace/1.0/">
	<!ENTITY ns_adobe_xpath "http://ns.adobe.com/XPath/1.0/">
]>
<svg version="1.1" id="图层_1" xmlns:x="&ns_extend;" xmlns:i="&ns_ai;" xmlns:graph="&ns_graphs;"
	 xmlns="http://www.w3.org/2000/svg" xmlns:xlink="http://www.w3.org/1999/xlink" x="0px" y="0px" viewBox="0 0 2350 1000"
	 enable-background="new 0 0 2350 1000" xml:space="preserve">
<metadata>
	<sfw  xmlns="&ns_sfw;">
		<slices></slices>
		<sliceSourceBounds  bottomLeftOrigin="true" height="1001" width="2351" x="-95.5" y="-1580.5"></sliceSourceBounds>
	</sfw>
</metadata>
<linearGradient id="SVGID_1_" gradientUnits="userSpaceOnUse" x1="664.7436523" y1="-383.789917" x2="1685.2563477" y2="1383.789917">
	<stop  offset="0" style="stop-color:#FFF21F"/>
	<stop  offset="0.0594872" style="stop-color:#FFE400"/>
	<stop  offset="0.1302734" style="stop-color:#FED700"/>
	<stop  offset="0.2031997" style="stop-color:#FDCF00"/>
	<stop  offset="0.280899" style="stop-color:#FCCD00"/>
	<stop  offset="0.668539" style="stop-color:#EF852E"/>
	<stop  offset="0.88764" style="stop-color:#EA652D"/>
	<stop  offset="1" style="stop-color:#E5352B"/>
</linearGradient>
<rect fill="url(#SVGID_1_)" stroke="#000000" stroke-miterlimit="10" width="2350" height="1000"/>
<g>
	<path fill="#FFFFFF" d="M208.3447266,347.0859375v-30.2080078h120.3193359V262.09375h62.4638672v54.7841797h111.1044922v30.2080078
		H391.1279297v64h36.8642578c49.8320313-37.5439453,97.7919922-80.3837891,143.8720703-128.5117188L622.0400391,319.4375
		c-40.6240234,35.8398438-78.1679688,66.3925781-112.6396484,91.6484375h131.0722656v30.2080078H466.3925781
		c-26.96875,18.4316406-54.7841797,35.671875-83.4560547,51.7119141h225.2792969v30.7197266H370.1367188l-10.7529297,56.3203125
		h204.8007813v90.1123047c0.3359375,39.5917969-21.5039063,59.2158203-65.5361328,58.8798828H349.65625l-7.6796875-30.2080078
		h122.8798828c21.1601563-0.6884766,32.0800781-10.5761719,32.7675781-29.6962891V610.765625H293.3359375l12.8007813-76.7998047
		c-40.2802734,19.7998047-81.9208984,38.9121094-124.9287109,57.34375l-12.7998047-28.671875
		c86.015625-40.2714844,158.5439453-80.7197266,217.5996094-121.34375h-214.015625v-30.2080078h156.671875v-64H208.3447266z"/>
	<path fill="#FFFFFF" d="M686.0400391,325.5820313v-30.2080078h183.8085938v30.2080078h-61.4404297
		c-8.5361328,33.1113281-22.5283203,68.9521484-41.984375,107.5195313H861.65625v240.640625H716.7597656V512.4619141
		c-10.9277344,14.3359375-21.5039063,26.1123047-31.7431641,35.328125l-9.7285156-32.2558594
		c32.4238281-56.65625,55.9765625-119.9765625,70.65625-189.9521484H686.0400391z M808.4082031,463.3095703h-38.4003906v179.2001953
		h38.4003906V463.3095703z M886.7441406,316.3662109v-30.7207031h256.5117188v30.7207031h-41.4716797v159.2314453h53.2480469
		v30.7197266h-53.2480469v224.2568359h-59.9042969V506.3173828h-60.9277344
		c-2.0478516,104.4482422-38.2314453,180.7363281-108.5439453,228.8642578l-18.4316406-20.9921875
		c47.1035156-50.8554688,69.7998047-120.1435547,68.0957031-207.8720703h-47.1044922v-30.7197266h47.6162109v-23.5517578
		V316.3662109H886.7441406z M982.4882813,453.5820313c0,7.5117188-0.1757813,14.8476563-0.5117188,22.015625h59.9033203V316.3662109
		h-59.3916016V453.5820313z"/>
	<path fill="#FFFFFF" d="M1397.2080078,384.9736328h63.4882813v47.6162109h151.0400391v123.3916016h49.6650391v29.6962891
		h-200.7050781c34.8164063,52.2236328,103.2480469,80.8964844,205.3125,86.015625l-22.5283203,60.9287109
		c-104.7919922-15.0244141-173.2324219-55.8085938-205.3125-122.3681641
		c-30.3837891,61.1035156-107.3515625,102.7363281-230.9121094,124.9277344l-12.2880859-28.671875
		c110.9287109-27.6484375,174.2480469-67.9199219,189.9521484-120.8320313h-184.8320313v-29.6962891h48.1279297V432.5898438
		h148.9921875V384.9736328z M1492.9521484,397.7734375v-50.6875h-127.4882813v50.6875h-62.9755859v-50.6875h-102.4003906
		v-30.2080078h102.4003906v-52.7363281h62.9755859v52.7363281h127.4882813v-52.7363281h62.9765625v52.7363281h104.9589844
		v30.2080078h-104.9589844v50.6875H1492.9521484z M1393.1123047,555.9814453
		c2.7275391-15.359375,4.0957031-32.5917969,4.0957031-51.7119141v-40.9599609h-88.0634766v92.671875H1393.1123047z
		 M1460.6962891,505.8056641c0,18.0957031-1.5361328,34.8164063-4.6083984,50.1757813h94.2080078v-92.671875h-89.5996094
		V505.8056641z"/>
	<path fill="#FFFFFF" d="M1744.8574219,721.8701172V457.1660156h-43.5205078v-30.2080078h104.4482422v197.6318359
		c11.2636719-6.1445313,27.8154297-18.2558594,49.6640625-36.3515625l5.6318359,30.7197266
		C1826.2646484,657.5341797,1787.5205078,691.8300781,1744.8574219,721.8701172z M1783.7685547,384.9736328
		c-16.0478516-40.9599609-33.2792969-74.9199219-51.7119141-101.8876953l28.671875-15.8720703
		c27.984375,25.2636719,54.4404297,52.9121094,79.3603516,82.9443359L1783.7685547,384.9736328z M1850.3291016,310.2216797
		v-30.7197266h313.8554688v30.7197266h-162.3037109l-13.3115234,62.9765625h144.8955078v108.03125h45.0556641V511.4375h-340.4794922
		v-30.2080078h65.5361328l16.3837891-77.3115234h-59.3916016v-30.7197266h66.0478516l13.3115234-62.9765625H1850.3291016z
		 M2147.8007813,716.75h-275.9677734V562.6376953h275.9677734V716.75z M2085.3369141,592.8457031h-151.5517578v93.6962891
		h151.5517578V592.8457031z M2072.5371094,403.9179688h-90.6240234l-16.3837891,77.3115234h107.0078125V403.9179688z"/>
</g>
<g>
</g>
<g>
</g>
<g>
</g>
<g>
</g>
<g>
</g>
<g>
</g>
</svg>
