<?xml version="1.0" encoding="utf-8"?>
<!-- Generator: Adobe Illustrator 24.2.1, SVG Export Plug-In . SVG Version: 6.00 Build 0)  -->
<!DOCTYPE svg PUBLIC "-//W3C//DTD SVG 1.1//EN" "http://www.w3.org/Graphics/SVG/1.1/DTD/svg11.dtd" [
	<!ENTITY ns_extend "http://ns.adobe.com/Extensibility/1.0/">
	<!ENTITY ns_ai "http://ns.adobe.com/AdobeIllustrator/10.0/">
	<!ENTITY ns_graphs "http://ns.adobe.com/Graphs/1.0/">
	<!ENTITY ns_vars "http://ns.adobe.com/Variables/1.0/">
	<!ENTITY ns_imrep "http://ns.adobe.com/ImageReplacement/1.0/">
	<!ENTITY ns_sfw "http://ns.adobe.com/SaveForWeb/1.0/">
	<!ENTITY ns_custom "http://ns.adobe.com/GenericCustomNamespace/1.0/">
	<!ENTITY ns_adobe_xpath "http://ns.adobe.com/XPath/1.0/">
]>
<svg version="1.1" id="图层_1" xmlns:x="&ns_extend;" xmlns:i="&ns_ai;" xmlns:graph="&ns_graphs;"
	 xmlns="http://www.w3.org/2000/svg" xmlns:xlink="http://www.w3.org/1999/xlink" x="0px" y="0px" viewBox="0 0 2350 1000"
	 enable-background="new 0 0 2350 1000" xml:space="preserve">
<metadata>
	<sfw  xmlns="&ns_sfw;">
		<slices></slices>
		<sliceSourceBounds  bottomLeftOrigin="true" height="1001" width="2351" x="-95.5" y="-1580.5"></sliceSourceBounds>
	</sfw>
</metadata>
<linearGradient id="SVGID_1_" gradientUnits="userSpaceOnUse" x1="664.7436523" y1="-383.789917" x2="1685.2563477" y2="1383.789917">
	<stop  offset="0" style="stop-color:#FFF21F"/>
	<stop  offset="0.0594872" style="stop-color:#FFE400"/>
	<stop  offset="0.1302734" style="stop-color:#FED700"/>
	<stop  offset="0.2031997" style="stop-color:#FDCF00"/>
	<stop  offset="0.280899" style="stop-color:#FCCD00"/>
	<stop  offset="0.668539" style="stop-color:#EF852E"/>
	<stop  offset="0.88764" style="stop-color:#EA652D"/>
	<stop  offset="1" style="stop-color:#E5352B"/>
</linearGradient>
<rect fill="url(#SVGID_1_)" stroke="#000000" stroke-miterlimit="10" width="2350" height="1000"/>
<g>
	<path fill="#FFFFFF" d="M346.0722656,260.0458984l73.7275391,6.1435547
		c-8.5351563,19.8007813-16.8955078,38.4003906-25.0878906,55.8085938h224.2558594v31.2314453H379.3525391
		c-10.5839844,22.5283203-22.8720703,46.5927734-36.8642578,72.1923828H640.984375v30.2080078H326.1044922
		c-10.9287109,19.1201172-23.8964844,40.2802734-38.9121094,63.4882813h312.8320313v36.3515625
		c-37.8876953,31.7441406-83.2880859,64-136.1923828,96.7685547c30.3759766,8.8798828,62.1201172,18.4316406,95.2324219,28.671875
		l-30.7197266,57.34375c-109.9121094-49.4882813-195.7607422-84.9921875-257.5361328-106.4960938
		c-20.1445313-7.5039063-31.5761719-11.9443359-34.3046875-13.3125l14.8486328-24.5751953
		c3.0712891,1.3681641,21.1601563,6.3193359,54.2714844,14.8476563
		c43.6884766,11.6083984,79.8720703,21.3359375,108.5439453,29.1835938
		c43.3447266-33.1035156,78.5039063-62.4638672,105.4726563-88.0634766H224.7285156v-34.3037109
		c0.6796875-1.7041016,5.2880859-10.4082031,13.8232422-26.1123047
		c7.5048828-13.6484375,13.6484375-24.9121094,18.4326172-33.7919922h-84.4804688V425.421875h100.3525391
		c11.5996094-22.5283203,23.0400391-46.5917969,34.3037109-72.1923828H197.5917969v-31.2314453H320.984375
		C329.5126953,302.2060547,337.8798828,281.5498047,346.0722656,260.0458984z"/>
	<path fill="#FFFFFF" d="M682.9677734,714.7021484v-30.2080078h135.1689453v-128l-59.3925781,19.9677734
		c-14.6796875-67.5839844-34.6474609-138.2402344-59.9042969-211.9677734l29.1845703-10.7519531
		c0.6796875,1.0234375,2.2158203,3.9277344,4.6074219,8.703125
		c36.5205078,68.6083984,65.0244141,132.0966797,85.5048828,190.4648438V270.2861328h64v414.2080078h66.0478516V270.2861328h64
		v414.2080078h141.8232422v30.2080078H682.9677734z M1146.328125,372.1738281
		c-26.6240234,68.9521484-58.7119141,135-96.2558594,198.1435547l-29.6962891-12.2871094
		c26.2802734-63.4882813,48.8085938-132.6083984,67.5839844-207.3603516L1146.328125,372.1738281z"/>
	<path fill="#FFFFFF" d="M1323.4804688,281.5498047l64.5117188,2.5595703v30.2080078
		c4.7763672,187.0566406-54.4482422,325.8085938-177.6640625,416.2568359l-17.9199219-23.0400391
		c93.5205078-98.3046875,137.2158203-230.0566406,131.0722656-395.2646484V281.5498047z M1506.7763672,277.4541016v25.5996094
		c-3.0722656,169.3037109,50.8554688,292.5283203,161.7929688,369.6640625l-49.6650391,57.8564453
		c-53.9365234-45.3925781-91.6484375-100.8642578-113.1523438-166.4003906
		c-21.5039063-60.0722656-31.7441406-147.1123047-30.7197266-261.1201172v-25.5996094H1506.7763672z"/>
	<path fill="#FFFFFF" d="M1831.8974609,352.7177734l52.2236328,24.0644531
		c-36.1845703,61.4394531-74.0722656,114.3515625-113.6640625,158.7197266c0.3359375,0,0.8476563,0,1.5361328,0
		c31.7441406-2.0478516,60.7519531-4.2646484,87.0400391-6.65625v28.671875
		c-45.4003906,13.65625-90.6240234,24.4082031-135.6806641,32.2558594l-14.8476563-51.1992188
		c0.3359375-0.3369141,1.0244141-1.0244141,2.0478516-2.0488281c23.2080078-26.6240234,45.5683594-55.9755859,67.0722656-88.0634766
		c-27.3125,7.1679688-48.4716797,11.9521484-63.4882813,14.3359375l-15.8720703-50.6884766
		c33.1044922-44.7119141,60.2402344-94.5439453,81.4082031-149.5039063l58.8798828,17.4082031
		c-28.3359375,50.1757813-55.2958984,93.015625-80.8955078,128.5117188
		c11.9433594-0.3359375,27.3037109-1.1914063,46.0800781-2.5595703
		C1813.2890625,389.5820313,1822.6806641,371.8378906,1831.8974609,352.7177734z M1852.8886719,647.1181641
		c-41.3037109,16.3837891-89.5996094,31.7431641-144.8955078,46.0800781l-7.1679688-58.8808594
		c2.0478516-0.3359375,11.0878906-1.1914063,27.1357422-2.5595703
		c50.1757813-4.4316406,91.8164063-8.7041016,124.9277344-12.7998047V647.1181641z M2076.6328125,426.4453125h86.5283203v34.8164063
		c-13.65625,55.6396484-38.9121094,106.4960938-75.7763672,152.5761719
		c25.9365234,21.8476563,57.8564453,41.984375,95.7441406,60.4160156l-34.3037109,56.3203125
		c-37.8886719-21.5048828-70.65625-46.9287109-98.3046875-76.2880859
		c-36.5273438,33.7919922-78.1679688,60.7519531-124.9277344,80.8955078l-15.359375-27.1357422
		c45.3916016-27.3037109,82.0878906-56.8320313,110.0800781-88.5761719
		c-25.6005859-33.7919922-46.5927734-70.65625-62.9765625-110.5917969
		c-13.3115234,84.9921875-50.8642578,158.7197266-112.6396484,221.1835938L1826.7773438,703.4375
		c55.6318359-79.5273438,82.4316406-179.7119141,80.3837891-300.5439453v-88.5761719h-34.8164063V284.109375h257.0244141v34.8164063
		c-10.2402344,27.3115234-25.7763672,59.3916016-46.5917969,96.2558594
		C2079.3613281,421.3261719,2077.3134766,425.0859375,2076.6328125,426.4453125z M1965.0166016,405.9658203v13.8242188
		c21.1601563,65.5361328,50,118.6162109,86.5283203,159.2314453
		c23.5517578-34.8154297,40.9599609-75.7753906,52.2236328-122.8798828H2026.96875v-29.6962891
		c17.4082031-37.1992188,31.7441406-74.5751953,43.0078125-112.1279297h-104.9599609V405.9658203z"/>
</g>
<g>
</g>
<g>
</g>
<g>
</g>
<g>
</g>
<g>
</g>
<g>
</g>
</svg>
