<?xml version="1.0" encoding="utf-8"?>
<!-- Generator: Adobe Illustrator 24.2.1, SVG Export Plug-In . SVG Version: 6.00 Build 0)  -->
<!DOCTYPE svg PUBLIC "-//W3C//DTD SVG 1.1//EN" "http://www.w3.org/Graphics/SVG/1.1/DTD/svg11.dtd" [
	<!ENTITY ns_extend "http://ns.adobe.com/Extensibility/1.0/">
	<!ENTITY ns_ai "http://ns.adobe.com/AdobeIllustrator/10.0/">
	<!ENTITY ns_graphs "http://ns.adobe.com/Graphs/1.0/">
	<!ENTITY ns_vars "http://ns.adobe.com/Variables/1.0/">
	<!ENTITY ns_imrep "http://ns.adobe.com/ImageReplacement/1.0/">
	<!ENTITY ns_sfw "http://ns.adobe.com/SaveForWeb/1.0/">
	<!ENTITY ns_custom "http://ns.adobe.com/GenericCustomNamespace/1.0/">
	<!ENTITY ns_adobe_xpath "http://ns.adobe.com/XPath/1.0/">
]>
<svg version="1.1" id="图层_1" xmlns:x="&ns_extend;" xmlns:i="&ns_ai;" xmlns:graph="&ns_graphs;"
	 xmlns="http://www.w3.org/2000/svg" xmlns:xlink="http://www.w3.org/1999/xlink" x="0px" y="0px" viewBox="0 0 2350 1000"
	 enable-background="new 0 0 2350 1000" xml:space="preserve">
<metadata>
	<sfw  xmlns="&ns_sfw;">
		<slices></slices>
		<sliceSourceBounds  bottomLeftOrigin="true" height="1001" width="2351" x="-95.5" y="-1580.5"></sliceSourceBounds>
	</sfw>
</metadata>
<linearGradient id="SVGID_1_" gradientUnits="userSpaceOnUse" x1="664.7436523" y1="-383.789917" x2="1685.2563477" y2="1383.789917">
	<stop  offset="0" style="stop-color:#FFF21F"/>
	<stop  offset="0.0594872" style="stop-color:#FFE400"/>
	<stop  offset="0.1302734" style="stop-color:#FED700"/>
	<stop  offset="0.2031997" style="stop-color:#FDCF00"/>
	<stop  offset="0.280899" style="stop-color:#FCCD00"/>
	<stop  offset="0.668539" style="stop-color:#EF852E"/>
	<stop  offset="0.88764" style="stop-color:#EA652D"/>
	<stop  offset="1" style="stop-color:#E5352B"/>
</linearGradient>
<rect fill="url(#SVGID_1_)" stroke="#000000" stroke-miterlimit="10" width="2350" height="1000"/>
<g>
	<path fill="#FFFFFF" d="M291.8085938,315.3417969c37.2001953-0.3359375,67.9199219,4.6083984,92.1601563,14.8476563
		l-10.2402344,40.4482422c-22.8720703-17.7441406-50.5205078-26.4482422-82.9443359-26.1123047
		c-36.5273438,0.3447266-54.9599609,18.4326172-55.2958984,54.2724609
		c-1.7119141,31.0634766,20.4804688,56.1523438,66.5605469,75.2636719
		c70.3115234,30.0400391,104.4472656,69.6318359,102.3994141,118.7841797
		c-3.0722656,66.2236328-46.5917969,100.0078125-130.5595703,101.3759766
		c-44.3759766,0.6796875-81.2402344-6.8242188-110.5927734-22.5283203l11.7763672-38.9111328
		c25.9365234,22.1914063,58.8798828,32.7675781,98.8164063,31.7431641
		c38.5673828-1.0234375,58.5361328-22.015625,59.9033203-62.9755859
		c1.7041016-33.1044922-20.9912109-59.2158203-68.0957031-78.3359375
		c-67.5839844-29.3525391-100.8642578-67.5839844-99.8398438-114.6884766
		C168.9287109,348.109375,210.9121094,317.0537109,291.8085938,315.3417969z"/>
	<path fill="#FFFFFF" d="M584.1572266,320.4619141h41.984375
		c63.1435547,166.2314453,111.7832031,289.1123047,145.9199219,368.6396484h-77.3125
		c-15.0234375-46.7597656-30.7197266-91.1357422-47.1035156-133.1201172H523.2294922
		c-1.0244141,2.3925781-2.3925781,5.8085938-4.0966797,10.2402344
		c-23.2158203,57.6884766-38.7431641,98.6484375-46.5917969,122.8798828h-40.4482422
		C471.3408203,603.0859375,522.0292969,480.2060547,584.1572266,320.4619141z M637.9169922,526.2861328L588.765625,390.09375
		l-52.7363281,136.1923828H637.9169922z"/>
	<path fill="#FFFFFF" d="M780.7597656,350.1582031v-29.6962891h270.8476563v29.6962891H950.2314453v338.9433594h-68.0957031
		V350.1582031H780.7597656z"/>
	<path fill="#FFFFFF" d="M1240.0166016,347.0859375v-30.2080078h120.3193359V262.09375h62.4638672v54.7841797h111.1044922
		v30.2080078h-111.1044922v64h36.8642578c49.8320313-37.5439453,97.7919922-80.3837891,143.8720703-128.5117188
		l50.1757813,36.8632813c-40.6240234,35.8398438-78.1679688,66.3925781-112.6396484,91.6484375h131.0712891v30.2080078h-174.0791016
		c-26.96875,18.4316406-54.7841797,35.671875-83.4560547,51.7119141h225.2792969v30.7197266h-238.0791016l-10.7529297,56.3203125
		h204.8007813v90.1123047c0.3359375,39.5917969-21.5039063,59.2158203-65.5361328,58.8798828H1381.328125l-7.6796875-30.2080078
		h122.8798828c21.1601563-0.6884766,32.0800781-10.5761719,32.7675781-29.6962891V610.765625h-204.2880859l12.8007813-76.7998047
		c-40.2802734,19.7998047-81.9208984,38.9121094-124.9287109,57.34375l-12.7998047-28.671875
		c86.015625-40.2714844,158.5439453-80.7197266,217.5996094-121.34375h-214.015625v-30.2080078h156.671875v-64H1240.0166016z"/>
	<path fill="#FFFFFF" d="M1755.6005859,715.2138672V457.1660156h-39.9355469v-30.7207031h99.328125v194.0488281
		c14.671875-9.2167969,29.3515625-21.1601563,44.03125-35.8408203l5.1201172,30.7207031
		C1834.4492188,649.1660156,1798.2646484,682.4462891,1755.6005859,715.2138672z M1786.3212891,383.9501953
		c-20.1445313-48.1289063-37.2080078-82.2568359-51.2001953-102.4003906l27.6474609-16.3837891
		c0.3359375,0.34375,1.3603516,1.2001953,3.0722656,2.5595703c29.3515625,23.8964844,54.7841797,51.3759766,76.2880859,82.4326172
		L1786.3212891,383.9501953z M1859.5371094,497.6142578v-30.7207031h148.4794922v30.7207031h-43.0078125v137.2158203
		c19.1123047-2.0478516,38.7363281-4.9443359,58.8798828-8.7041016v28.671875
		c-49.4960938,19.7998047-104.6240234,35.6640625-165.3759766,47.6162109l-10.2402344-56.3203125l58.8808594-4.6083984V497.6142578
		H1859.5371094z M2019.7929688,264.1416016h60.4160156l2.5595703,97.7919922h96.7685547v30.7197266h-95.7441406L2085.8408203,460.75
		c3.0722656,104.7919922,12.2880859,176.6396484,27.6484375,215.5517578
		c3.4072266,9.2158203,8.703125,14.1601563,15.8720703,14.8476563c4.7753906,0.3359375,8.359375-4.0957031,10.7519531-13.3115234
		c5.4560547-23.8876953,10.7519531-53.9277344,15.8720703-90.1123047l29.6953125,14.8486328
		c-4.7841797,36.8632813-10.4160156,68.4394531-16.8955078,94.7197266
		c-5.8085938,22.8642578-21.1679688,34.4716797-46.0800781,34.8154297c-29.0166016,0-49.1523438-14-60.4160156-41.9833984
		c-19.1201172-36.8642578-31.2324219-112.2958984-36.3525391-226.3037109l-2.0478516-71.1689453h-172.0322266v-30.7197266
		h171.0087891L2019.7929688,264.1416016z M2136.5292969,351.1816406
		c-13.65625-26.2802734-27.4804688-46.9277344-41.4726563-61.9521484l22.5283203-17.9199219
		c23.5517578,16.7285156,43.0078125,33.6240234,58.3681641,50.6884766L2136.5292969,351.1816406z"/>
</g>
<g>
</g>
<g>
</g>
<g>
</g>
<g>
</g>
<g>
</g>
<g>
</g>
</svg>
