<?xml version="1.0" encoding="utf-8"?>
<!-- Generator: Adobe Illustrator 24.2.1, SVG Export Plug-In . SVG Version: 6.00 Build 0)  -->
<!DOCTYPE svg PUBLIC "-//W3C//DTD SVG 1.1//EN" "http://www.w3.org/Graphics/SVG/1.1/DTD/svg11.dtd" [
	<!ENTITY ns_extend "http://ns.adobe.com/Extensibility/1.0/">
	<!ENTITY ns_ai "http://ns.adobe.com/AdobeIllustrator/10.0/">
	<!ENTITY ns_graphs "http://ns.adobe.com/Graphs/1.0/">
	<!ENTITY ns_vars "http://ns.adobe.com/Variables/1.0/">
	<!ENTITY ns_imrep "http://ns.adobe.com/ImageReplacement/1.0/">
	<!ENTITY ns_sfw "http://ns.adobe.com/SaveForWeb/1.0/">
	<!ENTITY ns_custom "http://ns.adobe.com/GenericCustomNamespace/1.0/">
	<!ENTITY ns_adobe_xpath "http://ns.adobe.com/XPath/1.0/">
	<!ENTITY st0 "fill:url(#SVGID_1_);">
	<!ENTITY st1 "fill:#FFFFFF;">
]>
<svg version="1.1" id="图层_1" xmlns:x="&ns_extend;" xmlns:i="&ns_ai;" xmlns:graph="&ns_graphs;"
	 xmlns="http://www.w3.org/2000/svg" xmlns:xlink="http://www.w3.org/1999/xlink" x="0px" y="0px" viewBox="0 0 2350 1000"
	 style="enable-background:new 0 0 2350 1000;" xml:space="preserve">
<metadata>
	<sfw  xmlns="&ns_sfw;">
		<slices></slices>
		<sliceSourceBounds  bottomLeftOrigin="true" height="1000" width="2350" x="0" y="-1000"></sliceSourceBounds>
	</sfw>
</metadata>
<linearGradient id="SVGID_1_" gradientUnits="userSpaceOnUse" x1="664.7436523" y1="-383.789917" x2="1685.2563477" y2="1383.789917">
	<stop  offset="0" style="stop-color:#FFF21F"/>
	<stop  offset="0.0594872" style="stop-color:#FFE400"/>
	<stop  offset="0.1302734" style="stop-color:#FED700"/>
	<stop  offset="0.2031997" style="stop-color:#FDCF00"/>
	<stop  offset="0.280899" style="stop-color:#FCCD00"/>
	<stop  offset="0.668539" style="stop-color:#EF852E"/>
	<stop  offset="0.88764" style="stop-color:#EA652D"/>
	<stop  offset="1" style="stop-color:#E5352B"/>
</linearGradient>
<rect style="&st0;" width="2350" height="1000"/>
<g>
</g>
<g>
	<path style="&st1;" d="M791.0317383,618.4785156h-418.800293v-208.199707
		c-22.0029297,8.0063477-39.402832,13.800293-52.199707,17.3999023l-13.2001953-33
		c91.2001953-34.3964844,157.59375-75,199.2001953-121.7998047H318.831543v-35.3999023h225.6000977v-54h71.3999023v54h230.3999023
		v35.3999023H635.6313477c54,42,129.1972656,72,225.6000977,90l-25.199707,66.6000977
		c-2.4003906-0.796875-5.8032227-1.9970703-10.2001953-3.6000977c-15.6000977-5.1938477-27.2060547-9.3935547-34.7998047-12.6000977
		V618.4785156z M310.4316406,715.078125v-36.5996094h544.199707v36.5996094H310.4316406z M544.4316406,377.8789063v-67.7998047
		c-43.2001953,38.3999023-93.6000977,69-151.2001953,91.7998047H762.831543c-61.2001953-25.59375-110.203125-57-147-94.2001953
		v70.2001953H544.4316406z M446.0317383,437.8789063v54h271.199707v-54H446.0317383z M446.0317383,582.4785156h271.199707
		v-55.7998047h-271.199707V582.4785156z"/>
	<path style="&st1;" d="M1412.6318359,527.8789063h-196.2001953v69.5996094h240v36h-240v100.8007813h-75.6000977V633.4785156h-234
		v-36h234v-69.5996094H948.2314453V274.6787109h122.3999023c-13.6030273-30.796875-28.6030273-56.793457-45-78
		l31.2001953-14.3999023c0.796875,0.4033203,3,1.800293,6.6000977,4.2001953
		c28.7998047,17.605957,53.793457,37.199707,75,58.7998047l-60,29.3999023h141.6005859
		c20.7929688-30.3935547,37.9960938-62.1933594,51.5996094-95.3999023l75,20.3999023
		c-23.203125,26.8032227-47.6064453,51.8066406-73.2001953,75h139.2001953V527.8789063z M1022.6313477,309.4790039v73.7998047
		h118.2001953v-73.7998047H1022.6313477z M1022.6313477,418.0791016v75h118.2001953v-75H1022.6313477z M1338.8320313,309.4790039
		h-122.4003906v73.7998047h122.4003906V309.4790039z M1216.4316406,493.0791016h122.4003906v-75h-122.4003906V493.0791016z"/>
	<path style="&st1;" d="M1548.8320313,720.4785156V406.6787109h-49.2001953v-35.3999023h119.4003906v243.6000977
		c16.3964844-9.9941406,33.9931641-23.1943359,52.7998047-39.6005859l6.5996094,32.4003906
		C1642.4316406,646.8847656,1599.2314453,684.4785156,1548.8320313,720.4785156z M1586.0322266,321.4790039
		c-22.40625-54.796875-42.2070313-93.796875-59.4003906-117l33-18.6000977
		c34.3964844,27.6000977,64.59375,59.8032227,90.6005859,96.6000977L1586.0322266,321.4790039z M1666.4316406,355.0791016
		v-30.6000977h267.6005859v30.6000977H1666.4316406z M1680.8320313,204.4790039h352.2001953v459.6000977
		c-0.4033203,42.7958984-22.2001953,64.3955078-65.4003906,64.7998047h-113.3994141l-7.2001953-34.8007813h82.2001953
		c20.3994141,0,30.5996094-10.1992188,30.5996094-30.5996094V239.8789063h-279V204.4790039z M1907.6318359,627.4785156h-217.7998047
		V436.6787109h217.7998047V627.4785156z M1841.0322266,466.6787109h-85.7998047v129.5996094h85.7998047V466.6787109z"/>
</g>
<g>
</g>
<g>
</g>
<g>
</g>
<g>
</g>
<g>
</g>
<g>
</g>
</svg>
