<?xml version="1.0" encoding="utf-8"?>
<!-- Generator: Adobe Illustrator 24.2.1, SVG Export Plug-In . SVG Version: 6.00 Build 0)  -->
<!DOCTYPE svg PUBLIC "-//W3C//DTD SVG 1.1//EN" "http://www.w3.org/Graphics/SVG/1.1/DTD/svg11.dtd" [
	<!ENTITY ns_extend "http://ns.adobe.com/Extensibility/1.0/">
	<!ENTITY ns_ai "http://ns.adobe.com/AdobeIllustrator/10.0/">
	<!ENTITY ns_graphs "http://ns.adobe.com/Graphs/1.0/">
	<!ENTITY ns_vars "http://ns.adobe.com/Variables/1.0/">
	<!ENTITY ns_imrep "http://ns.adobe.com/ImageReplacement/1.0/">
	<!ENTITY ns_sfw "http://ns.adobe.com/SaveForWeb/1.0/">
	<!ENTITY ns_custom "http://ns.adobe.com/GenericCustomNamespace/1.0/">
	<!ENTITY ns_adobe_xpath "http://ns.adobe.com/XPath/1.0/">
	<!ENTITY st0 "fill:url(#SVGID_1_);stroke:#000000;stroke-miterlimit:10;">
	<!ENTITY st1 "fill:#FFFFFF;">
]>
<svg version="1.1" id="图层_1" xmlns:x="&ns_extend;" xmlns:i="&ns_ai;" xmlns:graph="&ns_graphs;"
	 xmlns="http://www.w3.org/2000/svg" xmlns:xlink="http://www.w3.org/1999/xlink" x="0px" y="0px" viewBox="0 0 2350 1000"
	 style="enable-background:new 0 0 2350 1000;" xml:space="preserve">
<metadata>
	<sfw  xmlns="&ns_sfw;">
		<slices></slices>
		<sliceSourceBounds  bottomLeftOrigin="true" height="1001" width="2351" x="-95.5" y="-1580.5"></sliceSourceBounds>
	</sfw>
</metadata>
<linearGradient id="SVGID_1_" gradientUnits="userSpaceOnUse" x1="664.7436523" y1="-383.789917" x2="1685.2563477" y2="1383.789917">
	<stop  offset="0" style="stop-color:#FFF21F"/>
	<stop  offset="0.0594872" style="stop-color:#FFE400"/>
	<stop  offset="0.1302734" style="stop-color:#FED700"/>
	<stop  offset="0.2031997" style="stop-color:#FDCF00"/>
	<stop  offset="0.280899" style="stop-color:#FCCD00"/>
	<stop  offset="0.668539" style="stop-color:#EF852E"/>
	<stop  offset="0.88764" style="stop-color:#EA652D"/>
	<stop  offset="1" style="stop-color:#E5352B"/>
</linearGradient>
<rect style="&st0;" width="2350" height="1000"/>
<g>
	<path style="&st1;" d="M561.375,357.3515625l-40.3125,331.75h-109.625c-5.96875-40.53125-12.9453125-93.9453125-20.9375-160.25
		c-2.7382813,29.171875-6.5195313,58.5898438-11.3476563,88.2539063L368.0625,689.1015625h-109.875l-42.8125-331.75h87.0507813
		c0.6679688,8.6640625,8.0273438,71.9960938,22.0742188,190c1.109375-12.140625,8.671875-75.4765625,22.6875-190h83.625l20.4375,190
		c3.234375-55.4804688,10.9570313-118.8125,23.1601563-190H561.375z"/>
	<path style="&st1;" d="M806.375,529.1015625h-130.75v71.75c0,15,1.0820313,24.6679688,3.25,29
		c2.1640625,4.3359375,6.3320313,6.5,12.5,6.5c7.6640625,0,12.7890625-2.875,15.375-8.625c2.5820313-5.75,3.875-16.875,3.875-33.375
		v-43.75h95.75v24.5c0,20.5-1.2929688,36.25-3.875,47.25c-2.5859375,11-8.625,22.75-18.125,35.25s-21.5429688,21.875-36.125,28.125
		c-14.5859375,6.25-32.875,9.375-54.875,9.375c-21.3359375,0-40.1679688-3.0859375-56.5-9.25
		c-16.3359375-6.1640625-29.0429688-14.625-38.125-25.375c-9.0859375-10.75-15.375-22.5820313-18.875-35.5
		c-3.5-12.9140625-5.25-31.7070313-5.25-56.375v-96.75c0-29,3.9140625-51.875,11.75-68.625
		c7.8320313-16.75,20.6640625-29.5820313,38.5-38.5c17.8320313-8.9140625,38.3320313-13.375,61.5-13.375
		c28.3320313,0,51.7070313,5.375,70.125,16.125c18.4140625,10.75,31.3320313,25,38.75,42.75
		c7.4140625,17.75,11.125,42.7109375,11.125,74.875V529.1015625z M705.125,475.1015625v-24.25
		c0-17.1640625-0.9179688-28.25-2.75-33.25c-1.8359375-5-5.5859375-7.5-11.25-7.5c-7,0-11.3359375,2.125-13,6.375
		c-1.6679688,4.25-2.5,15.7109375-2.5,34.375v24.25H705.125z"/>
	<path style="&st1;" d="M943.375,284.3515625v404.75h-104v-404.75H943.375z"/>
	<path style="&st1;" d="M1202.875,482.6015625h-95.25v-38.25c0-13.3320313-1.0859375-22.375-3.25-27.125
		c-2.1679688-4.75-6.1679688-7.125-12-7.125c-5.8359375,0-9.75,2.0859375-11.75,6.25c-2,4.1679688-3,13.5-3,28v156.5
		c0,11.8359375,1.5,20.7109375,4.5,26.625c3,5.9179688,7.4140625,8.875,13.25,8.875c6.8320313,0,11.4570313-3.0820313,13.875-9.25
		c2.4140625-6.1640625,3.625-17.8320313,3.625-35v-39.5h90c-0.1679688,26.5-1.125,46.375-2.875,59.625
		s-7.3359375,26.8359375-16.75,40.75c-9.4179688,13.9179688-21.7109375,24.4179688-36.875,31.5
		c-15.1679688,7.0820313-33.9179688,10.625-56.25,10.625c-28.5,0-51.0859375-4.875-67.75-14.625
		c-16.6679688-9.75-28.4609375-23.4140625-35.375-41c-6.9179688-17.5820313-10.375-42.5390625-10.375-74.875v-94.25
		c0-28.1640625,2.8320313-49.4140625,8.5-63.75c5.6640625-14.3320313,17.75-27.125,36.25-38.375s41-16.875,67.5-16.875
		c26.3320313,0,48.8320313,5.5859375,67.5,16.75c18.6640625,11.1679688,31.0820313,25.25,37.25,42.25
		C1199.7890625,427.3515625,1202.875,451.4375,1202.875,482.6015625z"/>
	<path style="&st1;" d="M1461.375,473.8515625v81.25c0,29.8359375-1.5,51.7109375-4.5,65.625
		c-3,13.9179688-9.4179688,26.9179688-19.25,39c-9.8359375,12.0859375-22.4609375,21-37.875,26.75
		c-15.4179688,5.75-33.125,8.625-53.125,8.625c-22.3359375,0-41.25-2.4609375-56.75-7.375s-27.5429688-12.3320313-36.125-22.25
		c-8.5859375-9.9140625-14.7109375-21.9140625-18.375-36c-3.6679688-14.0820313-5.5-35.2070313-5.5-63.375v-85
		c0-30.8320313,3.3320313-54.9140625,10-72.25c6.6640625-17.3320313,18.6640625-31.25,36-41.75
		c17.3320313-10.5,39.5-15.75,66.5-15.75c22.6640625,0,42.125,3.375,58.375,10.125s28.7890625,15.5429688,37.625,26.375
		c8.8320313,10.8359375,14.875,22,18.125,33.5S1461.375,450.3515625,1461.375,473.8515625z M1360.375,448.8515625
		c0-17-0.9179688-27.7070313-2.75-32.125c-1.8359375-4.4140625-5.75-6.625-11.75-6.625s-10,2.2109375-12,6.625
		c-2,4.4179688-3,15.125-3,32.125v149.75c0,15.6679688,1,25.875,3,30.625s5.9140625,7.125,11.75,7.125
		c6,0,9.9570313-2.1640625,11.875-6.5c1.9140625-4.3320313,2.875-13.6640625,2.875-28V448.8515625z"/>
	<path style="&st1;" d="M1594.375,357.3515625l-1.75,31.5625c7.8320313-12.5195313,17.1640625-21.9101563,28-28.171875
		c10.8320313-6.2578125,23.1640625-9.390625,37.0009766-9.390625c27,0,48.25,12.5234375,63.75,37.5625
		c8.5-12.5195313,18.0820313-21.9101563,28.75-28.171875c10.6640625-6.2578125,22.5-9.390625,35.5-9.390625
		c17.1640625,0,31.375,4.1679688,42.625,12.5c11.25,8.3359375,18.4570313,18.5429688,21.625,30.625
		c3.1640625,12.0859375,4.75,31.7109375,4.75,58.875v235.75h-98v-216.25c0-28.3320313-0.9609375-45.875-2.875-52.625
		c-1.9179688-6.75-6.375-10.125-13.375-10.125c-7.1679688,0-11.7929688,3.3359375-13.875,10
		c-2.0859375,6.6679688-3.125,24.25-3.125,52.75v216.25H1625.375v-210.75c0-32.5-0.7929688-52-2.375-58.5
		c-1.5859375-6.5-5.9609375-9.75-13.125-9.75c-4.5,0-8.3359375,1.7109375-11.5,5.125
		c-3.1679688,3.4179688-4.9179688,7.5859375-5.25,12.5c-0.3359375,4.9179688-0.5,15.375-0.5,31.375v230h-98v-331.75H1594.375z"/>
	<path style="&st1;" d="M2118.1259766,529.1015625h-130.75v71.75c0,15,1.0820313,24.6679688,3.25,29
		c2.1640625,4.3359375,6.3320313,6.5,12.5,6.5c7.6640625,0,12.7890625-2.875,15.375-8.625c2.5820313-5.75,3.875-16.875,3.875-33.375
		v-43.75h95.75v24.5c0,20.5-1.2929688,36.25-3.875,47.25c-2.5859375,11-8.625,22.75-18.125,35.25s-21.5429688,21.875-36.125,28.125
		c-14.5859375,6.25-32.875,9.375-54.875,9.375c-21.3359375,0-40.1679688-3.0859375-56.5-9.25
		c-16.3359375-6.1640625-29.0429688-14.625-38.125-25.375c-9.0859375-10.75-15.375-22.5820313-18.875-35.5
		c-3.5-12.9140625-5.25-31.7070313-5.25-56.375v-96.75c0-29,3.9140625-51.875,11.75-68.625
		c7.8320313-16.75,20.6640625-29.5820313,38.5-38.5c17.8320313-8.9140625,38.3320313-13.375,61.5-13.375
		c28.3320313,0,51.7070313,5.375,70.125,16.125c18.4140625,10.75,31.3320313,25,38.75,42.75
		c7.4140625,17.75,11.125,42.7109375,11.125,74.875V529.1015625z M2016.8759766,475.1015625v-24.25
		c0-17.1640625-0.9179688-28.25-2.75-33.25c-1.8359375-5-5.5859375-7.5-11.25-7.5c-7,0-11.3359375,2.125-13,6.375
		c-1.6679688,4.25-2.5,15.7109375-2.5,34.375v24.25H2016.8759766z"/>
</g>
<g>
</g>
<g>
</g>
<g>
</g>
<g>
</g>
<g>
</g>
<g>
</g>
</svg>
