<?xml version="1.0" encoding="utf-8"?>
<!-- Generator: Adobe Illustrator 24.2.1, SVG Export Plug-In . SVG Version: 6.00 Build 0)  -->
<!DOCTYPE svg PUBLIC "-//W3C//DTD SVG 1.1//EN" "http://www.w3.org/Graphics/SVG/1.1/DTD/svg11.dtd" [
	<!ENTITY ns_extend "http://ns.adobe.com/Extensibility/1.0/">
	<!ENTITY ns_ai "http://ns.adobe.com/AdobeIllustrator/10.0/">
	<!ENTITY ns_graphs "http://ns.adobe.com/Graphs/1.0/">
	<!ENTITY ns_vars "http://ns.adobe.com/Variables/1.0/">
	<!ENTITY ns_imrep "http://ns.adobe.com/ImageReplacement/1.0/">
	<!ENTITY ns_sfw "http://ns.adobe.com/SaveForWeb/1.0/">
	<!ENTITY ns_custom "http://ns.adobe.com/GenericCustomNamespace/1.0/">
	<!ENTITY ns_adobe_xpath "http://ns.adobe.com/XPath/1.0/">
]>
<svg version="1.1" id="图层_1" xmlns:x="&ns_extend;" xmlns:i="&ns_ai;" xmlns:graph="&ns_graphs;"
	 xmlns="http://www.w3.org/2000/svg" xmlns:xlink="http://www.w3.org/1999/xlink" x="0px" y="0px" viewBox="0 0 2350 1000"
	 enable-background="new 0 0 2350 1000" xml:space="preserve">
<metadata>
	<sfw  xmlns="&ns_sfw;">
		<slices></slices>
		<sliceSourceBounds  bottomLeftOrigin="true" height="1001" width="2351" x="-95.5" y="-1580.5"></sliceSourceBounds>
	</sfw>
</metadata>
<linearGradient id="SVGID_1_" gradientUnits="userSpaceOnUse" x1="664.7436523" y1="-383.789917" x2="1685.2563477" y2="1383.789917">
	<stop  offset="0" style="stop-color:#FFF21F"/>
	<stop  offset="0.0594872" style="stop-color:#FFE400"/>
	<stop  offset="0.1302734" style="stop-color:#FED700"/>
	<stop  offset="0.2031997" style="stop-color:#FDCF00"/>
	<stop  offset="0.280899" style="stop-color:#FCCD00"/>
	<stop  offset="0.668539" style="stop-color:#EF852E"/>
	<stop  offset="0.88764" style="stop-color:#EA652D"/>
	<stop  offset="1" style="stop-color:#E5352B"/>
</linearGradient>
<rect fill="url(#SVGID_1_)" stroke="#000000" stroke-miterlimit="10" width="2350" height="1000"/>
<g>
	<path fill="#FFFFFF" d="M313.8164063,382.4140625c-30.7197266,87.3837891-69.4638672,168.1113281-116.2246094,242.1757813
		l-29.1835938-12.2880859c27.984375-68.9443359,54.6083984-151.3759766,79.8720703-247.2958984L313.8164063,382.4140625z
		 M382.4238281,725.9658203h-93.1835938l-6.65625-31.2324219h67.5839844
		c16.0400391-0.6875,24.4003906-9.3837891,25.0878906-26.1113281V265.6777344h69.1201172v400.8964844
		C444.3759766,706.1660156,423.7207031,725.9658203,382.4238281,725.9658203z M579.0322266,622.5419922
		c-27.6484375-103.7597656-53.9355469-186.1923828-78.8476563-247.2958984l29.1835938-9.7285156
		c48.4638672,74.0722656,87.3759766,151.8964844,116.7363281,233.4726563L579.0322266,622.5419922z"/>
	<path fill="#FFFFFF" d="M683.9921875,596.9414063v-30.2080078h214.015625v-19.4560547
		c29.6962891-17.0634766,61.2646484-39.2470703,94.7207031-66.5595703H768.984375v-30.7197266h297.4716797v34.8154297
		c-39.9355469,30.7207031-74.0722656,53.9365234-102.3994141,69.6318359v12.2880859h188.9277344v30.2080078H964.0566406v80.8964844
		c-0.3447266,34.1279297-18.4326172,51.3681641-54.2724609,51.7119141h-99.328125l-7.1679688-30.2080078h72.1923828
		c15.015625,0,22.5273438-7.8564453,22.5273438-23.5517578v-78.8486328H683.9921875z M756.6962891,467.9179688h-60.9277344
		V360.9101563h293.3759766c17.7441406-29.6962891,34.3037109-62.8007813,49.6640625-99.328125l69.1201172,17.4082031
		c-21.1689453,28.671875-46.5927734,55.9833984-76.2880859,81.9199219h109.5673828v107.0078125h-60.4160156v-76.7998047H756.6962891
		V467.9179688z M766.4238281,352.2060547c-10.5839844-37.8886719-20.3115234-64.5126953-29.1835938-79.8720703l31.2324219-7.6806641
		c0.3359375,0.3447266,0.8476563,0.6884766,1.5351563,1.0244141c21.5048828,16.7285156,42.3203125,39.4238281,62.4648438,68.0957031
		L766.4238281,352.2060547z M894.9365234,345.0380859c-6.1445313-31.4003906-14.3359375-57.5126953-24.5761719-78.3359375
		l31.2314453-6.1445313c0.3369141,0.34375,1.3603516,1.2001953,3.0722656,2.5605469
		c21.1601563,16.7275391,40.4482422,39.4238281,57.8564453,68.0957031L894.9365234,345.0380859z"/>
	<path fill="#FFFFFF" d="M1397.2080078,384.9736328h63.4882813v47.6162109h151.0400391v123.3916016h49.6650391v29.6962891
		h-200.7050781c34.8164063,52.2236328,103.2480469,80.8964844,205.3125,86.015625l-22.5283203,60.9287109
		c-104.7919922-15.0244141-173.2324219-55.8085938-205.3125-122.3681641
		c-30.3837891,61.1035156-107.3515625,102.7363281-230.9121094,124.9277344l-12.2880859-28.671875
		c110.9287109-27.6484375,174.2480469-67.9199219,189.9521484-120.8320313h-184.8320313v-29.6962891h48.1279297V432.5898438
		h148.9921875V384.9736328z M1492.9521484,397.7734375v-50.6875h-127.4882813v50.6875h-62.9755859v-50.6875h-102.4003906
		v-30.2080078h102.4003906v-52.7363281h62.9755859v52.7363281h127.4882813v-52.7363281h62.9765625v52.7363281h104.9589844
		v30.2080078h-104.9589844v50.6875H1492.9521484z M1393.1123047,555.9814453
		c2.7275391-15.359375,4.0957031-32.5917969,4.0957031-51.7119141v-40.9599609h-88.0634766v92.671875H1393.1123047z
		 M1460.6962891,505.8056641c0,18.0957031-1.5361328,34.8164063-4.6083984,50.1757813h94.2080078v-92.671875h-89.5996094
		V505.8056641z"/>
	<path fill="#FFFFFF" d="M1744.8574219,721.8701172V457.1660156h-43.5205078v-30.2080078h104.4482422v197.6318359
		c11.2636719-6.1445313,27.8154297-18.2558594,49.6640625-36.3515625l5.6318359,30.7197266
		C1826.2646484,657.5341797,1787.5205078,691.8300781,1744.8574219,721.8701172z M1783.7685547,384.9736328
		c-16.0478516-40.9599609-33.2792969-74.9199219-51.7119141-101.8876953l28.671875-15.8720703
		c27.984375,25.2636719,54.4404297,52.9121094,79.3603516,82.9443359L1783.7685547,384.9736328z M1850.3291016,310.2216797
		v-30.7197266h313.8554688v30.7197266h-162.3037109l-13.3115234,62.9765625h144.8955078v108.03125h45.0556641V511.4375h-340.4794922
		v-30.2080078h65.5361328l16.3837891-77.3115234h-59.3916016v-30.7197266h66.0478516l13.3115234-62.9765625H1850.3291016z
		 M2147.8007813,716.75h-275.9677734V562.6376953h275.9677734V716.75z M2085.3369141,592.8457031h-151.5517578v93.6962891
		h151.5517578V592.8457031z M2072.5371094,403.9179688h-90.6240234l-16.3837891,77.3115234h107.0078125V403.9179688z"/>
</g>
<g>
</g>
<g>
</g>
<g>
</g>
<g>
</g>
<g>
</g>
<g>
</g>
</svg>
